<svg width="32" height="32" viewBox="0 0 32 32" fill="none" xmlns="http://www.w3.org/2000/svg">
<g clip-path="url(#clip0_50_2)">
<rect width="32" height="32" rx="5" fill="#F8FAFC"/>
<rect width="32" height="32" rx="5" fill="#F8FAFC"/>
<path d="M19.0547 10.9072C18.8685 10.5952 18.1745 10.4391 16.9727 10.4391C15.3984 10.4391 14.2051 10.9565 13.3926 11.9913C12.5801 13.0261 12.1738 14.5208 12.1738 16.4754C12.1738 20.5324 13.7396 22.5609 16.8711 22.5609C16.9219 22.5609 17.1419 22.5609 17.5312 22.5609C17.9375 22.5609 18.3184 22.5116 18.6738 22.413C19.0293 22.2981 19.2409 22.1831 19.3086 22.0681C19.3763 21.9531 19.4102 21.7725 19.4102 21.5261V19.5551L22 19.7275V23.9899C20.6797 24.6633 19.0039 25 16.9727 25C14.3828 25 12.4023 24.2937 11.0312 22.8812C9.67708 21.4686 9 19.3662 9 16.5739C9 15.03 9.22852 13.6831 9.68555 12.5333C10.1426 11.3836 10.7604 10.4884 11.5391 9.84782C13.0625 8.61594 14.8737 8 16.9727 8C18.6654 8 20.2565 8.33671 21.7461 9.01014V13.1986L19.1562 13.371V11.4493C19.1562 11.2029 19.1224 11.0222 19.0547 10.9072Z" fill="#2A2A2A"/>
</g>
<defs>
<clipPath id="clip0_50_2">
<rect width="32" height="32" fill="white"/>
</clipPath>
</defs>
</svg>
